<svg width="40" height="40" viewBox="0 0 40 40" fill="none" xmlns="http://www.w3.org/2000/svg">
<path fill-rule="evenodd" clip-rule="evenodd" d="M5.82483 5.89076C9.55539 2.1427 14.6185 0.0246783 19.9067 0L20 0C25.3043 0 30.3914 2.10714 34.1421 5.85786C37.8929 9.60859 40 14.6957 40 20C40 25.3043 37.8929 30.3914 34.1421 34.1421C30.3914 37.8929 25.3043 40 20 40C14.6957 40 9.60859 37.8929 5.85786 34.1421C2.10714 30.3914 1.1874e-09 25.3043 1.18739e-09 20C-5.75817e-05 14.7118 2.09426 9.63882 5.82483 5.89076ZM35 29.4538V12.0675C35 9.53875 32.1125 8.09625 30.0912 9.6125L28.1813 11.0438L20 17.1813C20 17.1813 15.0128 13.4434 11.8188 11.0463C11.5476 10.8428 11.4885 10.7983 11.4259 10.7512C11.3162 10.6688 11.1962 10.5785 9.90875 9.6125C7.88625 8.095 5 9.53875 5 12.0675V29.4538C4.99984 29.7224 5.05261 29.9885 5.15531 30.2367C5.25801 30.485 5.40861 30.7106 5.59852 30.9006C5.78844 31.0906 6.01393 31.2414 6.26212 31.3442C6.51032 31.4471 6.77634 31.5 7.045 31.5H11.8188V19.9088L20 26.0462L28.1813 19.9088V31.4988H32.955C34.085 31.4988 35 30.5838 35 29.4538Z" fill="#F9FBF8"/>
</svg>
