<svg width="40" height="40" viewBox="0 0 40 40" fill="none" xmlns="http://www.w3.org/2000/svg">
<path d="M19.9067 0C14.6185 0.0246783 9.55539 2.1427 5.82483 5.89076C2.09426 9.63882 -5.75817e-05 14.7118 1.18739e-09 20C1.1874e-09 25.3043 2.10714 30.3914 5.85786 34.1421C9.60859 37.8929 14.6957 40 20 40C25.3043 40 30.3914 37.8929 34.1421 34.1421C37.8929 30.3914 40 25.3043 40 20C40 14.6957 37.8929 9.60859 34.1421 5.85786C30.3914 2.10714 25.3043 0 20 0L19.9067 0ZM28.1767 12.04C28.3433 12.0367 28.7117 12.0783 28.9517 12.2733C29.1119 12.4112 29.2138 12.6048 29.2367 12.815C29.2633 12.97 29.2967 13.325 29.27 13.6017C28.97 16.765 27.6667 24.4383 27.0033 27.98C26.7233 29.48 26.1717 29.9817 25.6367 30.03C24.4767 30.1383 23.595 29.2633 22.47 28.5267C20.71 27.3717 19.715 26.6533 18.0067 25.5267C16.0317 24.2267 17.3117 23.51 18.4367 22.3433C18.7317 22.0367 23.8483 17.3817 23.9483 16.96C23.96 16.9067 23.9717 16.71 23.855 16.6067C23.7383 16.5033 23.565 16.5383 23.44 16.5667C23.2633 16.6078 20.4517 18.4661 15.005 22.1417C14.205 22.6917 13.4817 22.9583 12.835 22.9417C12.1217 22.9283 10.7483 22.54 9.72667 22.2083C8.47333 21.8 7.47833 21.585 7.565 20.8933C7.60944 20.5333 8.10556 20.165 9.05333 19.7883C14.8833 17.2483 18.7711 15.5739 20.7167 14.765C26.27 12.455 27.425 12.0533 28.1767 12.04Z" fill="#F9FBF8"/>
</svg>
