<svg width="900" height="900" viewBox="0 0 900 900" fill="none" xmlns="http://www.w3.org/2000/svg">
<rect width="900" height="900" fill="#F9FBF8"/>
<path d="M103.957 114.007C105.267 114.015 105.267 114.015 106.604 114.023C114.765 114.142 122.438 115.272 130.332 117.319C133.275 118.043 135.612 118.385 138.582 118.569C147.898 119.53 154.109 125.599 160.144 132.257C161.005 133.183 161.005 133.183 161.882 134.128C169.615 142.678 177.873 152.172 181.082 163.382C182.607 168.547 184.305 173.589 186.214 178.624C188.231 184.336 189.449 189.728 189.961 195.768C190.052 196.838 190.052 196.838 190.145 197.929C190.341 200.267 190.525 202.605 190.707 204.944C190.772 205.756 190.837 206.568 190.905 207.405C191.923 220.14 192.439 232.838 192.687 245.608C193.005 261.285 194.265 276.822 195.775 292.425C196.114 295.94 196.436 299.457 196.75 302.975C196.922 304.882 197.095 306.788 197.269 308.694C197.344 309.528 197.42 310.362 197.497 311.221C197.825 314.663 198.304 317.911 199.144 321.257C199.335 323.031 199.523 324.807 199.689 326.584C200.53 335.503 202.028 344.209 203.707 353.007C205.674 363.468 206.692 373.584 206.98 384.21C207.453 401.658 208.962 425.381 222.144 438.257C224.455 439.307 226.79 440.307 229.144 441.257C230.039 442.097 230.933 442.938 231.855 443.803C235.475 446.916 238.701 446.965 243.332 446.944C250.808 447.032 250.808 447.032 254.144 449.257C256.66 449.498 256.66 449.498 259.332 449.382C260.233 449.364 261.134 449.345 262.062 449.327C262.749 449.304 263.436 449.28 264.144 449.257C264.456 442.892 263.269 437.093 261.957 430.882C261.498 428.654 261.04 426.426 260.582 424.198C260.344 423.056 260.107 421.914 259.863 420.738C258.7 415.104 257.58 409.461 256.457 403.819C256.057 401.82 255.657 399.822 255.257 397.823C254.979 396.431 254.979 396.431 254.696 395.01C254.323 393.149 253.947 391.289 253.569 389.429C253.389 388.541 253.209 387.652 253.023 386.737C252.863 385.951 252.702 385.165 252.537 384.355C251.657 379.654 251.593 377.212 254.019 373.007C257.634 368.329 257.634 368.329 260.989 367.855C266.842 368.04 272.231 370.592 277.621 372.675C278.823 373.129 280.025 373.583 281.264 374.051C284.455 375.257 287.641 376.477 290.826 377.7C294.027 378.926 297.232 380.138 300.437 381.352C311.687 385.618 322.916 389.934 334.144 394.257C333.713 388.527 333.275 382.798 332.832 377.069C332.732 375.787 332.732 375.787 332.631 374.478C331.634 361.685 330.473 348.924 329.059 336.17C328.939 335.074 328.819 333.979 328.695 332.85C328.588 331.909 328.482 330.967 328.372 329.997C327.703 321.945 327.703 321.945 330.269 317.944C333.534 314.892 334.757 314.429 339.144 314.257C340.342 314.123 341.539 313.988 342.773 313.85C348.469 313.872 351.992 317.205 356.269 320.632C357.951 321.925 359.633 323.218 361.316 324.51C362.136 325.15 362.957 325.79 363.802 326.448C366.984 328.905 370.237 331.249 373.519 333.569C374.071 333.961 374.622 334.354 375.19 334.758C384.86 342.029 384.86 342.029 395.144 348.257C395.247 346.957 395.35 345.658 395.457 344.319C395.712 341.103 396.423 338.297 397.468 335.264C399.528 329.287 401.074 323.19 402.644 317.069C402.954 315.87 403.263 314.672 403.583 313.437C405.401 306.338 407.06 299.242 408.539 292.065C410.274 284.016 412.267 277.549 417.894 271.319C420.69 269.999 423.004 270.154 426.046 270.444C430.857 272.308 433.885 277.066 436.597 281.264C437.284 282.317 437.97 283.369 438.677 284.453C439.063 285.049 439.449 285.645 439.846 286.259C441.863 289.363 443.905 292.449 445.943 295.537C448.931 300.066 451.912 304.599 454.894 309.132C456.725 311.914 458.556 314.696 460.387 317.478C461.518 319.196 462.649 320.915 463.78 322.634C466.555 326.85 469.339 331.06 472.144 335.257C475.91 327.197 479.306 319.026 482.582 310.757C483.096 309.47 483.612 308.183 484.127 306.897C486.756 300.329 489.348 293.75 491.869 287.14C493.088 283.951 494.323 280.769 495.559 277.587C496.152 276.046 496.739 274.502 497.318 272.956C503.04 257.677 503.04 257.677 510.144 253.257C513.92 252.501 515.381 252.778 518.63 254.817C521.736 257.831 522.903 260.903 524.238 264.913C524.507 265.676 524.775 266.439 525.052 267.226C525.931 269.731 526.788 272.243 527.644 274.757C528.25 276.498 528.858 278.238 529.467 279.978C530.409 282.672 531.35 285.366 532.285 288.062C534.451 294.309 536.678 300.531 538.949 306.741C539.252 307.57 539.554 308.4 539.866 309.254C541.038 312.46 542.21 315.665 543.388 318.869C544.194 321.064 544.994 323.262 545.793 325.46C546.032 326.108 546.272 326.756 546.52 327.424C547.522 330.196 548.144 332.28 548.144 335.257C553.517 332.354 558.226 329.028 563.019 325.257C568.737 320.819 574.516 316.517 580.457 312.382C587.892 307.202 595.15 301.807 602.37 296.331C615.639 286.288 615.639 286.288 623.144 287.257C625.361 288.833 625.361 288.833 627.144 291.257C627.62 294.54 627.62 294.54 627.546 298.538C627.533 299.274 627.519 300.01 627.505 300.769C627.205 311.144 625.906 321.455 624.707 331.757C624.473 333.819 624.241 335.881 624.009 337.944C623.584 341.724 623.153 345.503 622.717 349.282C622.573 350.531 622.573 350.531 622.427 351.805C622.239 353.439 622.046 355.072 621.85 356.704C621.373 360.764 621.024 364.724 621.082 368.819C621.095 370.089 621.095 370.089 621.109 371.385C621.126 372.312 621.126 372.312 621.144 373.257C622.139 372.88 623.134 372.503 624.16 372.114C627.135 370.987 630.11 369.861 633.086 368.734C636.468 367.454 639.85 366.172 643.232 364.89C650.746 362.043 658.262 359.202 665.804 356.428C666.903 356.023 668.002 355.617 669.134 355.2C671.132 354.464 673.132 353.734 675.134 353.011C676.015 352.686 676.896 352.361 677.804 352.026C678.553 351.754 679.302 351.482 680.074 351.201C682.239 350.304 682.239 350.304 684.232 348.677C686.144 347.257 686.144 347.257 689.082 346.757C692.144 347.257 692.144 347.257 695.019 349.257C697.678 353.011 697.557 355.846 697.144 360.257C696.605 363.081 695.827 365.811 695.019 368.569C692.439 377.832 690.326 387.169 688.288 396.564C686.706 403.832 684.991 411.052 683.144 418.257C683.813 418.001 684.483 417.745 685.172 417.482C691.537 415.07 697.973 413.068 704.511 411.195C708.201 410.134 711.867 409.036 715.511 407.827C716.216 407.595 716.921 407.364 717.647 407.125C719.588 406.483 721.524 405.829 723.461 405.175C728.428 403.937 732.983 403.471 737.894 405.257C741.72 408.657 743.728 412.504 744.496 417.581C744.7 423.354 743.458 428.493 741.941 434.03C740.799 438.653 740.192 443.313 739.574 448.03C739.162 451.119 738.673 454.186 738.144 457.257C739.753 456.291 741.362 455.326 742.971 454.36C744.342 453.537 745.715 452.717 747.089 451.897C750.139 450.077 753.167 448.242 756.156 446.323C759.654 444.089 762.351 442.406 766.457 441.632C770.098 442.479 771.622 443.462 774.144 446.257C777.414 453.332 778.246 461.183 779.332 468.819C779.597 470.618 779.597 470.618 779.869 472.454C780.301 475.387 780.726 478.321 781.144 481.257C782.577 480.343 784.004 479.421 785.429 478.495C786.225 477.982 787.02 477.47 787.84 476.941C790.706 474.846 792.79 472.466 794.953 469.675C796.144 468.257 796.144 468.257 798.144 467.257C803.201 466.959 807.427 467.352 812.144 469.257C814.738 472.406 815.883 476.058 817.261 479.874C818.329 482.757 819.477 485.6 820.644 488.444C821.046 489.428 821.448 490.411 821.863 491.425C823.986 496.173 823.986 496.173 827.144 500.257C830.657 500.539 834.184 500.489 837.707 500.507C838.684 500.527 839.662 500.548 840.669 500.569C846.94 500.603 851.393 499.726 857.144 497.257C862.379 496.715 865.73 497.347 870.144 500.257C872.33 502.952 873.063 504.779 873.644 508.194C872.976 512.289 871.23 514.63 868.144 517.257C865.956 518.58 863.719 519.752 861.449 520.928C859.157 522.249 857.4 523.659 855.457 525.444C850.309 530.161 844.579 534.027 838.875 538.031C836.315 539.844 833.794 541.708 831.269 543.569C808.709 559.962 781.513 567.201 754.144 570.257C753.258 570.356 752.372 570.455 751.459 570.557C744.686 571.308 744.686 571.308 741.689 571.611C738.678 571.922 736.027 572.295 733.144 573.257C728.591 573.487 724.036 573.485 719.478 573.497C717.246 573.506 715.015 573.537 712.783 573.569C704.076 573.633 696.556 572.699 688.144 570.257C685.73 569.767 683.336 569.414 680.894 569.069C679.796 568.911 678.698 568.752 677.566 568.589C676.367 568.424 676.367 568.424 675.144 568.257C675.474 568.917 675.804 569.577 676.144 570.257C676.409 574.103 676.334 577.965 676.332 581.819C676.331 583.664 676.331 583.664 676.331 585.545C676.278 598.812 675.741 612.065 675.207 625.319C675.163 626.423 675.12 627.527 675.075 628.664C674.948 631.832 674.815 634.999 674.679 638.167C674.621 639.606 674.621 639.606 674.562 641.074C674.502 642.406 674.502 642.406 674.441 643.765C674.408 644.539 674.375 645.313 674.34 646.11C674.145 648.252 673.679 650.178 673.144 652.257C672.988 654.651 672.868 657.047 672.769 659.444C672.387 667.193 671.573 674.868 670.644 682.569C670.513 683.661 670.383 684.752 670.248 685.876C669.729 690.081 669.192 694.15 668.144 698.257C667.989 700.171 667.869 702.088 667.769 704.007C667.335 710.805 666.484 717.506 665.582 724.257C662.953 738.515 662.953 738.515 665.144 752.257C665.703 760.084 664.22 766.819 660.144 773.569C651.665 782.447 633.95 786.31 622.002 786.808C618.761 786.865 615.526 786.857 612.285 786.799C609.815 786.756 607.347 786.758 604.877 786.764C588.034 786.698 577.729 783.848 565.644 771.882C564.139 770.345 562.637 768.805 561.144 767.257C560.216 767.566 559.288 767.875 558.332 768.194C551.374 770.176 538.773 772.571 532.144 769.257C530.416 769.179 528.686 769.119 526.957 769.069C521.964 768.632 519.154 767.669 515.632 764.096C501.691 746.862 501.382 717.57 498.58 696.561C497.708 690.085 496.748 683.662 495.457 677.257C494.338 671.663 493.709 666.212 493.453 660.514C493.196 657.802 492.758 655.352 492.178 652.7C491.11 647.439 490.625 642.253 490.293 636.901C490.229 635.955 490.165 635.009 490.099 634.035C489.967 632.053 489.838 630.07 489.711 628.088C489.519 625.066 489.317 622.045 489.113 619.024C488.985 617.087 488.857 615.151 488.73 613.214C488.671 612.319 488.611 611.424 488.55 610.502C488.249 605.741 488.083 601.026 488.144 596.257C487.565 596.415 486.985 596.574 486.388 596.737C482.852 597.556 479.258 597.637 475.644 597.819C474.846 597.861 474.048 597.903 473.226 597.946C455.291 598.83 455.291 598.83 452.144 597.257C449.339 597.041 446.551 596.879 443.742 596.757C442.908 596.716 442.075 596.675 441.216 596.634C438.546 596.504 435.877 596.379 433.207 596.257C429.697 596.095 426.188 595.927 422.679 595.757C421.465 595.703 421.465 595.703 420.226 595.649C416.991 595.492 414.234 595.287 411.144 594.257C409.662 594.079 408.175 593.94 406.687 593.827C405.821 593.753 404.956 593.68 404.064 593.604C402.255 593.457 400.445 593.316 398.634 593.182C397.33 593.068 397.33 593.068 396 592.952C394.819 592.859 394.819 592.859 393.614 592.765C390.473 592.119 387.953 590.774 385.144 589.257C385.155 590.469 385.165 591.681 385.176 592.931C385.502 634.264 385.502 634.264 383.652 651.182C382.912 657.982 382.712 664.806 382.486 671.639C382.454 672.534 382.423 673.428 382.39 674.35C382.354 675.521 382.354 675.521 382.318 676.716C382.144 679.257 382.144 679.257 381.658 682.542C381.102 686.559 380.856 690.547 380.679 694.593C380.602 696.219 380.525 697.846 380.447 699.472C380.388 700.737 380.388 700.737 380.329 702.026C379.744 714.505 379.13 726.985 378.207 739.444C378.113 740.853 378.113 740.853 378.017 742.291C377.295 751.431 375.481 760.488 371.269 768.694C370.797 769.642 370.326 770.589 369.839 771.565C364.887 779.428 358.139 781.776 349.47 783.821C343.125 785.01 336.683 784.913 330.251 784.799C327.75 784.756 325.251 784.758 322.75 784.764C314.433 784.731 306.959 784.411 299.144 781.257C297.735 780.783 297.735 780.783 296.296 780.3C286.307 776.441 277.374 770.891 272.144 761.257C271.01 761.401 269.875 761.545 268.707 761.694C267.965 761.784 267.224 761.875 266.461 761.968C265.029 762.146 263.599 762.336 262.171 762.546C254.525 763.577 246.84 763.423 239.144 763.257C238.283 763.24 237.422 763.223 236.535 763.206C226.403 762.559 215.934 757.398 208.957 750.132C205.984 746.544 204.818 742.867 203.687 738.393C203.217 736.224 203.269 736.359 202.707 734.308C202.56 731.488 201.909 728.638 201.863 725.815C201.845 724.942 201.827 724.069 201.808 723.169C201.77 721.269 201.733 719.369 201.699 717.469C201.644 714.465 201.583 711.46 201.521 708.456C201.39 702.077 201.267 695.698 201.144 689.319C201.002 681.933 200.857 674.546 200.704 667.16C200.645 664.196 200.591 661.231 200.537 658.267C200.5 656.454 200.463 654.64 200.425 652.827C200.412 652 200.398 651.172 200.384 650.319C200.312 647.06 200.182 644.369 199.144 641.257C199.005 639.216 198.919 637.172 198.863 635.128C198.807 633.328 198.807 633.328 198.75 631.493C198.679 628.956 198.609 626.42 198.539 623.884C198.483 622.086 198.483 622.086 198.425 620.253C198.207 619.308 197.675 617.642 197.644 616.507C197.144 614.007 197.352 613.719 197.144 611.507C197.005 610.022 196.919 609.282 196.863 607.792C196.825 606.909 196.788 606.027 196.75 605.118C196.715 604.194 196.68 603.271 196.644 602.319C196.575 600.497 196.502 598.676 196.425 596.854C196.395 596.045 196.365 595.235 196.334 594.401C196.211 592.072 196.144 592.757 195.644 589.757C195.45 586.239 194.827 582.223 194.718 578.702C194.058 574.742 192.928 573.092 190.144 570.257C188.489 569.238 186.822 568.238 185.144 567.257C183.455 565.612 181.791 563.943 180.144 562.257C179.026 561.311 177.901 560.374 176.769 559.444C172.786 556.06 169.497 552.253 166.144 548.257C165.393 547.393 164.641 546.529 163.867 545.639C158.443 539.316 153.605 532.792 148.987 525.864C148.558 525.223 148.129 524.581 147.687 523.921C147.131 523.077 147.131 523.077 146.563 522.216C145.052 520.057 145.527 519.812 143.144 517.257C140.644 513.757 138.51 510.503 137.207 506.675C136.961 505.952 136.715 505.229 136.461 504.484C135.672 502.143 134.906 499.795 134.144 497.444C133.747 496.237 133.747 496.237 133.342 495.006C128.84 481.261 125.299 467.577 123.144 453.257C122.997 452.295 122.85 451.334 122.698 450.344C121.843 444.625 121.126 438.901 120.474 433.155C120.275 431.408 120.072 429.66 119.859 427.914C117.248 406.041 117.757 383.935 117.644 361.944C119.515 324.144 119.515 324.144 114.144 287.257C113.937 284.794 113.771 282.348 113.644 279.882C113.302 273.575 114.061 267.539 113.392 261.257C113.404 258.487 113.144 258.757 113.392 256.257C113.827 251.879 114.052 248.428 113.582 244.257C113.519 243.463 113.457 242.668 113.392 241.85C112.94 237.645 112.49 235.679 109.742 232.319C105.701 229.111 103.825 228.024 98.7066 228.194C89.097 228.321 80.7293 227.905 71.7379 224.288C69.3305 223.331 66.9438 222.597 64.4566 221.882C52.8032 217.956 38.9095 204.395 32.1441 194.257C31.1579 192.002 30.3959 189.805 29.7496 187.432C29.2104 185.212 29.2104 185.212 28.066 183.155C26.6302 178.641 26.9864 174.265 27.2066 169.569C27.2526 168.58 27.2986 167.59 27.346 166.571C27.7972 159.516 28.9354 154.065 33.1441 148.257C34.0278 146.801 34.0278 146.801 34.9293 145.315C37.3333 141.995 39.9954 139.707 43.2691 137.319C43.8381 136.892 44.407 136.466 44.9932 136.026C49.2939 132.82 53.6769 129.734 58.1207 126.729C60.1596 125.352 60.6948 125.477 62.1441 123.757C64.8667 122.253 65.1366 122.382 68.0816 121.194C71.6441 119.757 74.075 119.866 77.1441 118.257C79.8087 117.534 82.4561 116.875 85.1441 116.257C85.8189 116.083 86.4938 115.909 87.189 115.73C92.8404 114.337 98.1482 113.942 103.957 114.007ZM90.1441 135.257C88.2202 135.717 88.2202 135.717 86.2574 136.186C84.376 136.654 84.376 136.654 82.4566 137.132C81.1946 137.438 79.9326 137.745 78.6324 138.061C74.993 139.308 73.0304 140.769 70.1441 143.257C68.2249 144.392 66.2863 145.496 64.3316 146.569C57.7902 150.323 51.1555 154.691 47.1441 161.257C44.9638 171.388 46.3586 180.297 51.2808 189.346C52.4565 191.131 53.7046 192.678 55.1441 194.257C55.8112 195.02 55.8112 195.02 56.4918 195.8C64.2108 203.479 76.1498 206.847 86.7535 207.151C89.1441 207.257 89.1441 207.257 92.1441 208.257C93.691 207.947 93.691 207.947 95.2691 207.632C105.055 206.685 113.951 212.989 121.519 218.632C128.801 225.914 129.615 235.528 131.144 245.257C131.317 246.322 131.489 247.387 131.667 248.484C132.176 252.507 132.332 256.474 132.39 260.522C132.423 262.154 132.456 263.785 132.49 265.417C132.536 267.925 132.58 270.433 132.621 272.942C132.774 282.036 133.091 291.068 133.873 300.132C134.977 313.046 135.373 325.88 135.488 338.835C135.496 339.749 135.504 340.663 135.513 341.604C135.568 348.238 135.608 354.872 135.644 361.507C135.494 407.147 135.494 407.147 140.394 452.444C140.611 453.724 140.828 455.004 141.051 456.323C145.913 483.769 155.964 509.857 174.144 531.257C174.754 532 175.364 532.744 175.992 533.51C179.408 537.588 182.684 540.314 187.144 543.257C188.601 544.945 189.955 546.668 191.261 548.475C196.813 553.727 204.025 555.178 211.332 556.444C212.25 556.611 213.168 556.777 214.114 556.949C225.851 559.691 225.851 559.691 237.144 558.257C238.848 558.116 240.556 558.031 242.265 557.975C243.283 557.938 244.301 557.901 245.349 557.862C246.416 557.827 247.483 557.792 248.582 557.757C250.685 557.688 252.787 557.615 254.89 557.538C255.825 557.508 256.76 557.477 257.724 557.446C260.286 557.343 260.286 557.343 263.144 556.257C265.372 556.104 267.601 555.983 269.832 555.882C273.975 555.623 277.525 555.383 281.332 553.694C286.134 551.614 291.005 551.412 296.144 552.257C299.957 554.773 300.88 556.434 302.269 560.757C302.144 564.257 302.144 564.257 300.332 567.069C296.777 569.509 294.139 570.176 289.937 570.8C286.272 571.399 282.739 572.328 279.144 573.257C278.956 583.155 278.947 592.621 280.695 602.401C281.738 609.034 281.269 615.543 280.265 622.151C280.051 624.305 280.051 624.305 280.619 626.568C281.136 629.216 281.331 631.688 281.425 634.382C281.481 635.812 281.481 635.812 281.539 637.272C281.609 639.262 281.679 641.251 281.75 643.241C281.806 644.672 281.806 644.672 281.863 646.132C281.893 646.995 281.923 647.859 281.955 648.749C282.149 651.321 282.628 653.732 283.144 656.257C283.269 657.683 283.364 659.112 283.425 660.542C283.481 661.709 283.481 661.709 283.539 662.899C283.609 664.516 283.679 666.134 283.75 667.751C283.787 668.527 283.824 669.304 283.863 670.104C283.893 670.806 283.923 671.507 283.955 672.229C284.091 674.267 284.091 674.267 284.653 676.234C285.197 678.476 285.274 680.463 285.277 682.768C285.278 683.608 285.279 684.448 285.281 685.313C285.277 686.181 285.273 687.05 285.269 687.944C285.273 688.824 285.277 689.704 285.281 690.61C285.279 691.864 285.279 691.864 285.277 693.143C285.276 693.909 285.208 693.519 285.207 694.308C284.64 695.653 284.707 697.359 284.144 698.808C283.971 701.297 283.86 703.209 283.793 705.702C283.769 706.464 283.746 707.226 283.722 708.011C283.675 709.637 283.629 711.263 283.586 712.889C283.521 715.323 283.442 717.756 283.363 720.19C281.928 737.506 281.928 737.506 286.332 753.507C289.261 756.371 291.379 757.694 295.144 759.257C296.856 760.125 298.564 761 300.269 761.882C307.179 765.434 313.025 765.439 320.707 765.444C321.76 765.456 322.814 765.469 323.9 765.481C325.415 765.484 325.415 765.484 326.961 765.487C328.344 765.493 328.344 765.493 329.756 765.5C332.409 765.418 331.644 765.808 336.144 765.308C339.167 764.972 337.644 765.308 341.144 764.808C343.47 764.476 344.836 763.866 345.644 763.808C347.644 763.308 348.644 763.308 350.144 762.808C354.644 761.308 352.574 761.845 355.671 758.647C357.339 754.807 357.676 751.932 357.769 747.757C358.644 740.808 358.511 740.748 359.101 737.518C360.144 731.808 360.854 727.687 361.207 722.569C361.29 721.442 361.373 720.314 361.458 719.153C362.142 709.407 362.534 699.656 362.803 689.891C362.834 688.818 362.866 687.745 362.898 686.639C362.934 685.222 362.934 685.222 362.971 683.777C363.144 681.257 363.144 681.257 363.628 679.39C364.397 676.209 364.479 672.994 364.644 669.737C364.685 669.001 364.725 668.266 364.767 667.508C364.896 665.153 365.02 662.799 365.144 660.444C365.269 658.129 365.395 655.813 365.521 653.498C365.599 652.062 365.676 650.626 365.752 649.19C365.788 648.503 365.825 647.816 365.863 647.109C365.903 646.359 365.943 645.61 365.984 644.837C366.101 642.949 366.244 641.063 366.401 639.178C367.25 628.477 367.206 617.846 367.097 607.119C367.054 602.663 367.031 598.207 367.007 593.752C366.961 585.488 366.908 577.225 366.822 568.962C366.763 563.18 366.727 557.399 366.709 551.617C366.697 549.422 366.676 547.227 366.646 545.032C366.605 541.973 366.595 538.916 366.592 535.858C366.573 534.955 366.553 534.052 366.533 533.122C366.562 528.684 366.729 526.815 369.452 523.149C372.144 521.257 372.144 521.257 375.769 521.382C377.913 521.937 380.043 522.556 382.144 523.257C384.225 527.097 384.429 530.57 384.523 534.885C384.557 536.169 384.591 537.452 384.627 538.774C384.654 540.122 384.68 541.471 384.707 542.819C384.919 552.002 385.251 561.112 386.144 570.257C393.767 574.003 400.444 574.813 408.8 575.081C412.144 575.257 412.144 575.257 414.144 576.257C417.179 576.472 420.199 576.634 423.238 576.757C424.14 576.797 425.043 576.838 425.973 576.88C428.863 577.01 431.753 577.134 434.644 577.257C438.446 577.418 442.248 577.586 446.05 577.757C446.931 577.792 447.811 577.827 448.718 577.864C454.919 578.144 454.919 578.144 457.144 579.257C458.967 579.285 460.791 579.244 462.613 579.171C464.293 579.106 464.293 579.106 466.007 579.04C467.207 578.988 468.408 578.936 469.644 578.882C471.476 578.805 471.476 578.805 473.346 578.727C475.806 578.622 478.266 578.515 480.727 578.405C483.656 578.278 486.585 578.169 489.515 578.069C496.965 577.784 503.879 577.081 511.082 575.01C514.782 574.099 518.488 573.667 522.269 573.257C531.027 572.274 538.308 570.287 546.144 566.257C546.171 564.048 546.191 561.84 546.207 559.632C546.224 557.787 546.224 557.787 546.242 555.905C546.152 552.563 545.707 549.543 545.144 546.257C544.982 543.739 544.88 541.217 544.832 538.694C544.794 537.414 544.757 536.134 544.718 534.815C545.211 530.7 546.18 529.098 549.144 526.257C552.082 525.632 552.082 525.632 555.144 526.257C557.957 528.694 557.957 528.694 560.144 531.257C560.474 531.587 560.804 531.917 561.144 532.257C561.355 534.524 561.513 536.796 561.644 539.069C561.813 543.568 561.813 543.568 562.626 547.969C563.397 551.372 563.517 554.809 563.713 558.283C563.762 559.098 563.812 559.914 563.862 560.754C564.026 563.488 564.185 566.224 564.343 568.959C564.46 570.919 564.577 572.878 564.694 574.838C564.945 579.06 565.194 583.282 565.442 587.505C565.833 594.182 566.23 600.859 566.627 607.536C567.399 620.507 568.165 633.479 568.931 646.451C569.905 662.952 570.881 679.453 571.862 695.954C572.257 702.59 572.649 709.227 573.038 715.864C573.281 719.995 573.526 724.126 573.772 728.258C573.886 730.172 573.998 732.086 574.11 734.001C574.262 736.617 574.418 739.233 574.575 741.849C574.618 742.604 574.661 743.359 574.706 744.137C575.112 754.345 575.112 754.345 580.152 762.749C588.72 769.234 602.875 768.557 613.144 768.257C614.097 768.251 615.049 768.246 616.031 768.241C626.043 767.889 634.833 764.674 644.144 761.257C644.133 760.619 644.121 759.98 644.109 759.323C644.095 758.084 644.095 758.084 644.082 756.819C644.07 755.995 644.058 755.172 644.046 754.323C644.144 752.257 644.144 752.257 645.144 751.257C645.348 749.861 645.492 748.456 645.609 747.05C645.686 746.163 645.762 745.276 645.841 744.363C645.921 743.4 646 742.437 646.082 741.444C646.257 739.422 646.432 737.4 646.609 735.378C646.698 734.351 646.787 733.325 646.878 732.268C648.481 714.126 650.564 696.029 652.707 677.944C652.897 676.323 652.897 676.323 653.091 674.67C653.274 673.141 653.274 673.141 653.461 671.581C653.568 670.674 653.676 669.768 653.787 668.833C654.023 667.132 654.312 665.437 654.656 663.754C659.854 637.183 667.28 577.428 655.144 553.257C655.274 549.553 655.4 547.172 657.769 544.257C661.228 542.8 663.557 543.344 667.144 544.257C668.144 545.257 669.144 546.257 670.144 547.257C672.782 548.089 675.443 548.647 678.144 549.257C678.474 549.587 678.804 549.917 679.144 550.257C680.991 550.608 682.847 550.913 684.707 551.194C688.113 551.71 691.278 552.298 694.578 553.307C700.457 554.815 706.525 554.554 712.553 554.517C714.64 554.507 716.725 554.517 718.812 554.53C725.609 554.537 731.612 554.139 738.144 552.257C741.342 551.802 744.551 551.532 747.769 551.257C749.553 551.086 751.337 550.915 753.121 550.741C754.415 550.616 754.415 550.616 755.735 550.489C778.251 548.317 806.542 541.645 823.144 525.257C823.704 524.725 824.263 524.194 824.839 523.647C825.971 522.547 827.065 521.408 828.144 520.257C826.436 518.549 824.155 518.986 821.816 518.862C799.907 517.547 799.907 517.547 791.152 514.327C787.453 513.011 783.713 512.147 779.894 511.257C773.965 509.834 768.599 507.973 763.144 505.257C761.968 504.762 760.793 504.267 759.582 503.757C755.692 502.059 751.925 500.18 748.144 498.257C746.853 497.61 745.561 496.964 744.269 496.319C743.603 495.985 742.936 495.651 742.25 495.307C740.817 494.592 739.382 493.882 737.945 493.175C716.766 482.708 716.766 482.708 707.347 475.768C705.262 474.338 703.267 473.329 700.957 472.319C696.969 470.453 694.862 467.774 692.121 464.401C689.094 461.117 685.508 458.754 681.859 456.206C678.055 453.474 674.617 450.391 671.144 447.257C667.897 444.361 664.614 442.432 660.769 440.444C655.628 437.708 651.979 434.594 648.144 430.257C645.021 426.787 641.929 424.459 637.957 422.069C633.92 419.578 630.719 417.008 627.457 413.569C622.686 408.562 617.457 404.581 611.894 400.517C608.427 397.98 605.104 395.44 601.957 392.507C597.804 388.722 593.04 386.024 588.226 383.163C585.735 381.622 583.571 380.061 581.332 378.194C576.955 374.75 571.895 372.796 566.778 370.704C561.477 368.52 561.477 368.52 559.226 366.738C556.863 365.057 555.048 364.542 552.222 363.94C551.279 363.733 550.335 363.526 549.363 363.313C548.383 363.109 547.403 362.905 546.394 362.694C544.462 362.277 542.529 361.859 540.597 361.44C539.665 361.242 538.732 361.044 537.772 360.84C535.471 360.329 533.205 359.753 530.929 359.139C527.009 358.225 523.349 357.885 519.332 357.694C512.441 357.355 512.441 357.355 509.144 356.257C507.211 356.162 505.275 356.126 503.339 356.124C502.199 356.122 501.058 356.121 499.882 356.12C498.69 356.124 497.498 356.128 496.269 356.132C495.084 356.128 493.9 356.124 492.679 356.12C491.536 356.121 490.392 356.122 489.214 356.124C488.17 356.125 487.126 356.126 486.051 356.127C483.3 356.25 480.828 356.673 478.144 357.257C475.895 357.403 473.645 357.527 471.394 357.632C466.429 357.965 462.366 358.624 457.75 360.389C455.007 361.302 452.255 361.908 449.425 362.489C425.913 367.317 400.424 374.231 380.711 388.421C378.179 390.231 375.596 391.778 372.894 393.319C368.883 395.678 365.512 398.357 362.128 401.546C359.622 403.707 356.9 405.425 354.144 407.257C351.839 408.985 349.585 410.774 347.332 412.569C346.095 413.548 344.858 414.528 343.621 415.507C342.728 416.214 342.728 416.214 341.817 416.936C339.627 418.665 337.417 420.367 335.207 422.069C330.792 425.497 326.517 429.075 322.402 432.858C321.822 433.382 321.242 433.905 320.644 434.444C320.139 434.912 319.633 435.38 319.113 435.862C317.144 437.257 317.144 437.257 313.785 438.608C309.824 440.402 307.489 442.414 304.394 445.444C291.805 457.357 274.505 469.8 256.425 469.378C255.343 469.338 254.26 469.298 253.144 469.257C252.489 469.243 251.834 469.229 251.16 469.214C249.028 469.166 246.899 469.09 244.769 469.007C244.091 468.993 243.413 468.979 242.715 468.964C237.909 468.724 235.634 467.477 232.144 464.257C230.835 463.446 229.501 462.673 228.144 461.944C227.373 461.521 226.602 461.098 225.808 460.663C223.859 459.634 221.893 458.639 219.918 457.663C212.8 454.063 207.803 450.737 203.144 444.257C202.601 443.615 202.059 442.973 201.5 442.311C196.144 435.457 195.417 427.593 194.144 419.257C193.131 413.6 193.131 413.6 191.144 408.257C190.936 405.649 190.77 403.056 190.644 400.444C190.417 395.1 190.417 395.1 189.642 389.817C189.151 387.292 188.973 384.946 188.898 382.378C188.867 381.463 188.835 380.547 188.803 379.604C188.755 378.164 188.755 378.164 188.707 376.694C188.343 367.565 187.356 358.943 185.451 350.003C183.508 340.708 182.162 331.438 181.082 322.007C180.91 320.545 180.739 319.083 180.567 317.621C180.084 313.501 179.614 309.379 179.144 305.257C179.026 304.248 178.909 303.24 178.788 302.201C177.68 292.694 176.878 283.223 176.485 273.657C176.438 272.554 176.438 272.554 176.39 271.428C176.354 270.471 176.354 270.471 176.318 269.494C176.163 267.102 176.163 267.102 175.644 264.143C175.031 259.381 174.952 254.701 174.898 249.905C174.865 247.9 174.832 245.895 174.798 243.889C174.751 240.751 174.706 237.613 174.667 234.475C174.628 231.431 174.576 228.387 174.523 225.343C174.51 223.938 174.51 223.938 174.498 222.504C174.41 217.9 173.071 214.492 172.644 210.257C172.389 207.72 172.001 207.27 171.871 205.053C171.808 203.992 171.829 203.092 171.808 202.081C171.782 200.047 171.764 198.013 171.753 195.979C171.613 190.006 170.811 185.621 168.125 180.276C166.736 177.416 166.068 174.466 165.332 171.382C162.774 162.076 158.708 155.225 151.144 149.257C149.808 147.475 149.808 147.475 148.769 145.757C144.949 140.198 139.706 138.059 133.273 136.624C130.172 136.089 127.064 135.766 123.929 135.503C122.144 135.257 122.144 135.257 121.144 134.257C117.471 133.842 113.773 133.739 110.082 133.569C109.056 133.509 108.031 133.449 106.974 133.387C100.86 133.102 95.9943 133.476 90.1441 135.257Z" fill="#409919"/>
<path d="M540.099 591.103C540.759 591.763 541.419 592.423 542.099 593.103C544.168 593.746 544.168 593.746 546.099 594.103C546.979 597.991 547.333 601.75 547.548 605.728C547.584 606.375 547.62 607.021 547.657 607.688C547.775 609.826 547.888 611.964 548.001 614.103C548.084 615.618 548.168 617.133 548.252 618.649C548.473 622.655 548.69 626.662 548.905 630.669C549.287 637.751 549.674 644.834 550.064 651.916C550.128 653.074 550.128 653.075 550.193 654.257C550.837 665.937 551.585 677.605 552.411 689.274C553.052 698.325 553.62 707.378 554.104 716.44C554.228 718.731 554.357 721.021 554.486 723.312C554.848 729.879 555.167 736.448 555.287 743.025C555.303 743.95 555.32 744.875 555.337 745.829C555.099 748.103 555.099 748.103 552.974 750.791C545.298 754.374 535.236 753.464 527.087 752.259C523.898 750.405 523.117 747.473 522.099 744.103C521.265 740.686 520.603 737.25 519.974 733.791C519.641 732.002 519.305 730.215 518.966 728.427C518.751 727.253 518.751 727.253 518.532 726.055C518.167 724.037 518.167 724.037 517.099 722.103C516.817 719.316 516.653 716.528 516.478 713.732C516.166 710.744 515.716 707.894 515.162 704.947C513.851 697.974 513.014 690.958 512.156 683.917C512.033 682.936 511.909 681.954 511.783 680.943C511.621 679.618 511.621 679.618 511.456 678.267C511.202 676.062 511.202 676.062 510.099 674.103C509.891 672.462 509.731 670.814 509.599 669.166C509.517 668.188 509.434 667.211 509.349 666.205C509.182 664.137 509.016 662.069 508.849 660.001C508.767 659.024 508.684 658.047 508.599 657.041C508.527 656.142 508.455 655.244 508.38 654.318C508.218 652.066 508.218 652.066 507.099 650.103C506.887 648.009 506.73 645.91 506.599 643.81C506.517 642.54 506.434 641.269 506.349 639.96C506.265 638.612 506.182 637.264 506.099 635.916C505.935 633.297 505.768 630.678 505.599 628.06C505.527 626.895 505.455 625.729 505.38 624.528C505.186 622.159 504.911 619.796 504.574 617.443C504.197 614.794 503.981 612.364 504.001 609.701C504.005 608.956 504.008 608.212 504.011 607.445C504.019 606.693 504.028 605.941 504.037 605.166C504.041 604.386 504.046 603.607 504.05 602.804C504.062 600.904 504.08 599.003 504.099 597.103C508.627 595.687 512.58 594.863 517.349 594.666C522.745 594.33 527.519 593.363 532.662 591.724C535.28 591.057 537.409 590.853 540.099 591.103Z" fill="#F9FBF8"/>
<path d="M215.103 576C219.81 576.367 224.285 576.777 228.853 578.023C234.798 579.635 240.983 579.47 247.103 579.625C248.98 579.683 248.98 579.683 250.896 579.742C253.965 579.836 257.033 579.922 260.103 580C261.04 582.812 261.182 584.214 261.06 587.086C260.744 598.104 261.417 608.537 263.103 619.438C264.742 630.177 265.404 640.423 265.181 651.27C265.051 657.669 265.277 664.043 265.54 670.438C265.6 671.993 265.6 671.993 265.66 673.579C265.835 677.699 266.064 681.721 266.63 685.809C267.485 692.036 267.247 698.353 267.228 704.625C267.234 706.57 267.234 706.57 267.239 708.555C267.238 709.808 267.237 711.061 267.236 712.352C267.234 713.484 267.233 714.617 267.232 715.784C267.105 718.94 266.645 721.892 266.103 725C266.03 726.433 265.994 727.869 266.005 729.305C266.008 730.052 266.012 730.8 266.015 731.57C266.023 732.331 266.032 733.091 266.04 733.875C266.045 734.659 266.049 735.442 266.054 736.25C266.066 738.167 266.084 740.083 266.103 742C253.996 746.189 239.074 747.022 227.001 742.152C224.308 740.783 222.42 739.573 220.94 736.902C219.833 733.063 219.757 729.349 219.708 725.386C219.69 724.53 219.672 723.674 219.653 722.793C219.595 719.972 219.55 717.152 219.505 714.332C219.466 712.371 219.427 710.41 219.386 708.449C219.282 703.293 219.188 698.136 219.097 692.98C218.95 684.715 218.79 676.451 218.624 668.187C218.568 665.297 218.519 662.406 218.47 659.515C218.436 657.752 218.402 655.989 218.368 654.226C218.35 653.014 218.35 653.014 218.332 651.778C218.335 647.758 218.335 647.758 217.103 644C216.96 641.773 216.876 639.543 216.821 637.312C216.803 636.654 216.785 635.996 216.766 635.318C216.687 632.498 216.619 629.678 216.55 626.858C216.499 624.801 216.442 622.744 216.384 620.688C216.354 619.454 216.323 618.22 216.292 616.949C216.103 614 215.603 613.5 215.103 611.5C215.016 608.801 214.987 606.628 215.005 603.93C215.006 603.133 215.008 602.337 215.009 601.517C215.015 598.97 215.028 596.422 215.04 593.875C215.045 592.15 215.05 590.424 215.054 588.699C215.065 584.466 215.082 580.233 215.103 576Z" fill="#F9FBF8"/>
<path d="M104.252 146.659C109.029 150.839 109.029 150.839 109.537 154.421C109.767 160.3 108.856 165.292 104.963 169.952C102.333 172.462 100.402 173.387 96.8143 173.909C91.2445 173.127 87.0607 171.676 83.3768 167.346C80.2359 163.005 79.5482 159.731 80.2518 154.409C82.0129 150.819 83.5972 148.888 86.8143 146.534C92.5929 144.643 98.5801 144.296 104.252 146.659Z" fill="#409919"/>
</svg>
