<svg width="40" height="40" viewBox="0 0 40 40" fill="none" xmlns="http://www.w3.org/2000/svg">
<path d="M11.7167 0.140002C9.58841 0.240002 8.13508 0.580002 6.86674 1.07834C5.53294 1.58359 4.32501 2.37295 3.32674 3.39167C2.31223 4.39269 1.52745 5.60229 1.02674 6.93667C0.535076 8.21 0.200076 9.66667 0.106742 11.7933C0.0134091 13.92 -0.00825759 14.6067 0.00174241 20.0383C0.0117424 25.47 0.0367424 26.15 0.140076 28.2833C0.241742 30.4117 0.580076 31.865 1.07841 33.135C1.59174 34.45 2.27841 35.5633 3.39174 36.6733C4.39373 37.6883 5.6045 38.4731 6.94008 38.9733C8.21174 39.465 9.66674 39.8 11.7951 39.8933C13.9251 39.9867 14.6101 40.0083 20.0401 39.9983C25.4701 39.9883 26.1534 39.9633 28.2851 39.8617C30.4184 39.7617 31.8634 39.42 33.1351 38.9233C34.4683 38.4179 35.6756 37.6285 36.6734 36.61C37.6883 35.608 38.4731 34.3972 38.9734 33.0617C39.4651 31.79 39.8001 30.335 39.8917 28.2083C39.9851 26.075 40.0084 25.3917 39.9967 19.9617C39.9867 14.5317 39.9634 13.85 39.8617 11.7167C39.7617 9.58334 39.4217 8.13667 38.9217 6.865C38.4168 5.53194 37.628 4.32461 36.6101 3.32667C35.6086 2.31196 34.3984 1.52716 33.0634 1.02667C31.7901 0.536669 30.3367 0.200002 28.2067 0.110002C26.0784 0.0150019 25.3934 -0.00999809 19.9617 1.9154e-06C14.5301 0.0100019 13.8501 0.0350019 11.7167 0.140002ZM11.9501 36.295C10.0001 36.2117 8.94174 35.8867 8.23674 35.615C7.36667 35.2971 6.57941 34.7872 5.93341 34.1233C5.26732 33.4801 4.75464 32.6951 4.43341 31.8267C4.15841 31.1217 3.82841 30.0633 3.73841 28.1133C3.63841 26.0067 3.61841 25.3733 3.60508 20.0333C3.59508 14.6933 3.61508 14.0617 3.70674 11.9533C3.79008 10.005 4.11674 8.945 4.38674 8.24C4.74674 7.305 5.18174 6.64 5.87841 5.93667C6.52212 5.27037 7.30768 4.75768 8.17674 4.43667C8.88174 4.16167 9.93841 3.835 11.8884 3.74167C13.9967 3.64167 14.6284 3.62167 19.9684 3.60834C25.3067 3.59834 25.9401 3.61834 28.0517 3.71167C29.9984 3.795 31.0584 4.11834 31.7634 4.39167C32.6967 4.75167 33.3634 5.18334 34.0667 5.88334C34.7701 6.58334 35.2017 7.245 35.5667 8.18C35.8417 8.88334 36.1701 9.94 36.2617 11.8917C36.3617 14 36.3851 14.6333 36.3951 19.9717C36.4034 25.31 36.3851 25.9433 36.2934 28.0517C36.2084 30.0017 35.8851 31.06 35.6134 31.7683C35.2534 32.7017 34.8184 33.3683 34.1201 34.0683C33.4768 34.7344 32.6919 35.2471 31.8234 35.5683C31.1201 35.8433 30.0601 36.1717 28.1134 36.265C26.0034 36.365 25.3717 36.385 20.0301 36.3967C14.6884 36.4083 14.0601 36.385 11.9501 36.295ZM28.2551 9.31C28.2557 9.78475 28.3972 10.2486 28.6615 10.643C28.9259 11.0373 29.3012 11.3444 29.7401 11.5254C30.179 11.7064 30.6617 11.7532 31.1272 11.6598C31.5926 11.5664 32.02 11.337 32.3551 11.0008C32.6902 10.6645 32.918 10.2364 33.0098 9.77059C33.1016 9.3048 33.0531 8.82225 32.8706 8.38399C32.6881 7.94573 32.3797 7.57145 31.9845 7.30848C31.5892 7.04551 31.1248 6.90568 30.6501 6.90667C30.0138 6.90799 29.4042 7.16189 28.9551 7.61256C28.506 8.06322 28.2542 8.67377 28.2551 9.31ZM9.73174 20.02C9.73705 22.7436 10.8241 25.3535 12.7537 27.2755C14.6832 29.1976 17.2974 30.2745 20.0209 30.2692C22.7445 30.2639 25.3544 29.1769 27.2764 27.2473C29.1985 25.3177 30.2754 22.7036 30.2701 19.98C30.2308 17.2789 29.1289 14.7021 27.203 12.8077C25.2772 10.9133 22.6825 9.85405 19.9812 9.85931C17.2798 9.86457 14.6893 10.934 12.7708 12.8358C10.8524 14.7376 9.76049 17.3188 9.73174 20.02ZM13.3334 20.0133C13.3308 18.6948 13.7192 17.4051 14.4495 16.3073C15.1799 15.2095 16.2194 14.3529 17.4365 13.8459C18.6537 13.3389 19.9939 13.2042 21.2876 13.4589C22.5813 13.7135 23.7705 14.3461 24.7047 15.2766C25.6389 16.207 26.2762 17.3936 26.536 18.6863C26.7958 19.979 26.6665 21.3197 26.1644 22.5389C25.6622 23.7581 24.8098 24.801 23.715 25.5357C22.6201 26.2705 21.3319 26.664 20.0134 26.6667C19.1379 26.6684 18.2707 26.4977 17.4612 26.1643C16.6517 25.8309 15.9157 25.3413 15.2955 24.7235C14.6752 24.1057 14.1826 23.3717 13.846 22.5635C13.5093 21.7554 13.3352 20.8888 13.3334 20.0133Z" fill="#F9FBF8"/>
</svg>
